<svg xmlns="http://www.w3.org/2000/svg" xmlns:xlink="http://www.w3.org/1999/xlink" width="500" zoomAndPan="magnify" viewBox="0 0 375 374.999991" height="500" preserveAspectRatio="xMidYMid meet" version="1.0"><defs><clipPath id="a2d33a1086"><path d="M 137 65.625 L 186 65.625 L 186 114 L 137 114 Z M 137 65.625 " clip-rule="nonzero"/></clipPath><clipPath id="3b1053f40c"><path d="M 189 65.625 L 238 65.625 L 238 114 L 189 114 Z M 189 65.625 " clip-rule="nonzero"/></clipPath><clipPath id="9cc1cbb52f"><path d="M 0 238 L 375 238 L 375 309.375 L 0 309.375 Z M 0 238 " clip-rule="nonzero"/></clipPath></defs><rect x="-37.5" width="450" fill="#ffffff" y="-37.499999" height="449.999989" fill-opacity="1"/><rect x="-37.5" width="450" fill="#04062d" y="-37.499999" height="449.999989" fill-opacity="1"/><g clip-path="url(#a2d33a1086)"><path fill="#cbad6c" d="M 185.65625 80.332031 L 137.382812 113.222656 L 137.382812 98.625 L 185.65625 65.730469 L 185.65625 80.332031 " fill-opacity="1" fill-rule="nonzero"/></g><path fill="#cbad6c" d="M 185.65625 103.003906 L 137.382812 135.894531 L 137.382812 121.300781 L 185.65625 88.40625 L 185.65625 103.003906 " fill-opacity="1" fill-rule="nonzero"/><path fill="#cbad6c" d="M 185.65625 125.675781 L 137.382812 158.566406 L 137.382812 143.972656 L 185.65625 111.082031 L 185.65625 125.675781 " fill-opacity="1" fill-rule="nonzero"/><path fill="#cbad6c" d="M 185.65625 148.351562 L 137.382812 181.246094 L 137.382812 166.644531 L 185.65625 133.757812 L 185.65625 148.351562 " fill-opacity="1" fill-rule="nonzero"/><path fill="#cbad6c" d="M 185.65625 171.027344 L 137.382812 203.917969 L 137.382812 189.320312 L 185.65625 156.429688 L 185.65625 171.027344 " fill-opacity="1" fill-rule="nonzero"/><path fill="#cbad6c" d="M 185.65625 193.703125 L 137.382812 226.59375 L 137.382812 212 L 185.65625 179.101562 L 185.65625 193.703125 " fill-opacity="1" fill-rule="nonzero"/><path fill="#cbad6c" d="M 185.65625 216.378906 L 137.382812 249.265625 L 137.382812 234.667969 L 185.65625 201.777344 L 185.65625 216.378906 " fill-opacity="1" fill-rule="nonzero"/><path fill="#cbad6c" d="M 185.65625 239.050781 L 137.382812 267.914062 L 137.382812 257.34375 L 185.65625 224.453125 L 185.65625 239.050781 " fill-opacity="1" fill-rule="nonzero"/><g clip-path="url(#3b1053f40c)"><path fill="#cbad6c" d="M 189.347656 80.332031 L 237.621094 113.222656 L 237.621094 98.625 L 189.347656 65.730469 L 189.347656 80.332031 " fill-opacity="1" fill-rule="nonzero"/></g><path fill="#cbad6c" d="M 189.347656 103.003906 L 237.621094 135.894531 L 237.621094 121.300781 L 189.347656 88.40625 L 189.347656 103.003906 " fill-opacity="1" fill-rule="nonzero"/><path fill="#cbad6c" d="M 189.347656 125.675781 L 237.621094 158.566406 L 237.621094 143.972656 L 189.347656 111.082031 L 189.347656 125.675781 " fill-opacity="1" fill-rule="nonzero"/><path fill="#cbad6c" d="M 189.347656 148.351562 L 237.621094 181.246094 L 237.621094 166.644531 L 189.347656 133.757812 L 189.347656 148.351562 " fill-opacity="1" fill-rule="nonzero"/><path fill="#cbad6c" d="M 189.347656 171.027344 L 237.621094 203.917969 L 237.621094 189.320312 L 189.347656 156.429688 L 189.347656 171.027344 " fill-opacity="1" fill-rule="nonzero"/><path fill="#cbad6c" d="M 189.347656 193.703125 L 237.621094 226.59375 L 237.621094 212 L 189.347656 179.101562 L 189.347656 193.703125 " fill-opacity="1" fill-rule="nonzero"/><path fill="#cbad6c" d="M 189.347656 216.378906 L 237.621094 249.265625 L 237.621094 234.667969 L 189.347656 201.777344 L 189.347656 216.378906 " fill-opacity="1" fill-rule="nonzero"/><path fill="#cbad6c" d="M 189.347656 239.050781 L 237.621094 267.914062 L 237.621094 257.34375 L 189.347656 224.453125 L 189.347656 239.050781 " fill-opacity="1" fill-rule="nonzero"/><path fill="#cbad6c" d="M 275.25 137.292969 L 241.324219 160.40625 L 241.324219 150.144531 L 275.25 127.027344 L 275.25 137.292969 " fill-opacity="1" fill-rule="nonzero"/><path fill="#cbad6c" d="M 275.25 153.222656 L 241.324219 176.339844 L 241.324219 166.078125 L 275.25 142.964844 L 275.25 153.222656 " fill-opacity="1" fill-rule="nonzero"/><path fill="#cbad6c" d="M 275.25 169.160156 L 241.324219 192.269531 L 241.324219 182.015625 L 275.25 158.902344 L 275.25 169.160156 " fill-opacity="1" fill-rule="nonzero"/><path fill="#cbad6c" d="M 275.25 185.089844 L 241.324219 208.203125 L 241.324219 197.949219 L 275.25 174.832031 L 275.25 185.089844 " fill-opacity="1" fill-rule="nonzero"/><path fill="#cbad6c" d="M 275.25 201.027344 L 241.324219 224.136719 L 241.324219 213.882812 L 275.25 190.769531 L 275.25 201.027344 " fill-opacity="1" fill-rule="nonzero"/><path fill="#cbad6c" d="M 275.25 216.960938 L 241.324219 240.074219 L 241.324219 229.816406 L 275.25 206.703125 L 275.25 216.960938 " fill-opacity="1" fill-rule="nonzero"/><path fill="#cbad6c" d="M 275.25 232.890625 L 241.324219 256.003906 L 241.324219 245.75 L 275.25 222.632812 L 275.25 232.890625 " fill-opacity="1" fill-rule="nonzero"/><path fill="#cbad6c" d="M 275.25 248.828125 L 241.324219 267.914062 L 241.324219 261.683594 L 275.25 238.570312 L 275.25 248.828125 " fill-opacity="1" fill-rule="nonzero"/><path fill="#cbad6c" d="M 277.839844 137.292969 L 311.765625 160.40625 L 311.765625 150.144531 L 277.839844 127.027344 L 277.839844 137.292969 " fill-opacity="1" fill-rule="nonzero"/><path fill="#cbad6c" d="M 277.839844 153.222656 L 311.765625 176.339844 L 311.765625 166.078125 L 277.839844 142.964844 L 277.839844 153.222656 " fill-opacity="1" fill-rule="nonzero"/><path fill="#cbad6c" d="M 277.839844 169.160156 L 311.765625 192.269531 L 311.765625 182.015625 L 277.839844 158.902344 L 277.839844 169.160156 " fill-opacity="1" fill-rule="nonzero"/><path fill="#cbad6c" d="M 277.839844 185.089844 L 311.765625 208.203125 L 311.765625 197.949219 L 277.839844 174.832031 L 277.839844 185.089844 " fill-opacity="1" fill-rule="nonzero"/><path fill="#cbad6c" d="M 277.839844 201.027344 L 311.765625 224.136719 L 311.765625 213.882812 L 277.839844 190.769531 L 277.839844 201.027344 " fill-opacity="1" fill-rule="nonzero"/><path fill="#cbad6c" d="M 277.839844 216.960938 L 311.765625 240.074219 L 311.765625 229.816406 L 277.839844 206.703125 L 277.839844 216.960938 " fill-opacity="1" fill-rule="nonzero"/><path fill="#cbad6c" d="M 277.839844 232.890625 L 311.765625 256.003906 L 311.765625 245.75 L 277.839844 222.632812 L 277.839844 232.890625 " fill-opacity="1" fill-rule="nonzero"/><path fill="#cbad6c" d="M 277.839844 248.828125 L 311.765625 271.941406 L 311.765625 261.683594 L 277.839844 238.570312 L 277.839844 248.828125 " fill-opacity="1" fill-rule="nonzero"/><path fill="#cbad6c" d="M 97.164062 137.292969 L 63.238281 160.40625 L 63.238281 150.144531 L 97.164062 127.027344 L 97.164062 137.292969 " fill-opacity="1" fill-rule="nonzero"/><path fill="#cbad6c" d="M 97.164062 153.222656 L 63.238281 176.339844 L 63.238281 166.078125 L 97.164062 142.964844 L 97.164062 153.222656 " fill-opacity="1" fill-rule="nonzero"/><path fill="#cbad6c" d="M 97.164062 169.160156 L 63.238281 192.269531 L 63.238281 182.015625 L 97.164062 158.902344 L 97.164062 169.160156 " fill-opacity="1" fill-rule="nonzero"/><path fill="#cbad6c" d="M 97.164062 185.089844 L 63.238281 208.203125 L 63.238281 197.949219 L 97.164062 174.832031 L 97.164062 185.089844 " fill-opacity="1" fill-rule="nonzero"/><path fill="#cbad6c" d="M 97.164062 201.027344 L 63.238281 224.136719 L 63.238281 213.882812 L 97.164062 190.769531 L 97.164062 201.027344 " fill-opacity="1" fill-rule="nonzero"/><path fill="#cbad6c" d="M 97.164062 216.960938 L 63.238281 240.074219 L 63.238281 229.816406 L 97.164062 206.703125 L 97.164062 216.960938 " fill-opacity="1" fill-rule="nonzero"/><path fill="#cbad6c" d="M 97.164062 232.890625 L 63.238281 256.003906 L 63.238281 245.75 L 97.164062 222.632812 L 97.164062 232.890625 " fill-opacity="1" fill-rule="nonzero"/><path fill="#cbad6c" d="M 97.164062 248.828125 L 63.238281 271.941406 L 63.238281 261.683594 L 97.164062 238.570312 L 97.164062 248.828125 " fill-opacity="1" fill-rule="nonzero"/><path fill="#cbad6c" d="M 99.753906 137.292969 L 133.679688 160.40625 L 133.679688 150.144531 L 99.753906 127.027344 L 99.753906 137.292969 " fill-opacity="1" fill-rule="nonzero"/><path fill="#cbad6c" d="M 99.753906 153.222656 L 133.679688 176.339844 L 133.679688 166.078125 L 99.753906 142.964844 L 99.753906 153.222656 " fill-opacity="1" fill-rule="nonzero"/><path fill="#cbad6c" d="M 99.753906 169.160156 L 133.679688 192.269531 L 133.679688 182.015625 L 99.753906 158.902344 L 99.753906 169.160156 " fill-opacity="1" fill-rule="nonzero"/><path fill="#cbad6c" d="M 99.753906 185.089844 L 133.679688 208.203125 L 133.679688 197.949219 L 99.753906 174.832031 L 99.753906 185.089844 " fill-opacity="1" fill-rule="nonzero"/><path fill="#cbad6c" d="M 99.753906 201.027344 L 133.679688 224.136719 L 133.679688 213.882812 L 99.753906 190.769531 L 99.753906 201.027344 " fill-opacity="1" fill-rule="nonzero"/><path fill="#cbad6c" d="M 99.753906 216.960938 L 133.679688 240.074219 L 133.679688 229.816406 L 99.753906 206.703125 L 99.753906 216.960938 " fill-opacity="1" fill-rule="nonzero"/><path fill="#cbad6c" d="M 99.753906 232.890625 L 133.679688 256.003906 L 133.679688 245.75 L 99.753906 222.632812 L 99.753906 232.890625 " fill-opacity="1" fill-rule="nonzero"/><path fill="#cbad6c" d="M 99.753906 248.828125 L 133.679688 267.914062 L 133.679688 261.683594 L 99.753906 238.570312 L 99.753906 248.828125 " fill-opacity="1" fill-rule="nonzero"/><g clip-path="url(#9cc1cbb52f)"><path fill="#cbad6c" d="M 187.5 267.210938 C 255.609375 267.210938 319.5625 282.496094 375.011719 309.269531 C 323.417969 264.992188 258.296875 238.570312 187.5 238.570312 C 116.707031 238.570312 51.585938 264.992188 -0.0117188 309.269531 C 55.441406 282.496094 119.394531 267.210938 187.5 267.210938 " fill-opacity="1" fill-rule="nonzero"/></g></svg>